<svg width="42" height="41" viewBox="0 0 42 41" fill="none" xmlns="http://www.w3.org/2000/svg">
<path d="M21 0C18.2422 0 15.5115 0.543413 12.9636 1.59921C10.4158 2.65501 8.10079 4.20252 6.15076 6.15338C2.21249 10.0933 0 15.437 0 21.009C0 30.2949 6.027 38.1733 14.364 40.9675C15.414 41.1355 15.75 40.4842 15.75 39.917V36.3665C9.933 37.627 8.694 33.5513 8.694 33.5513C7.728 31.1143 6.363 30.463 6.363 30.463C4.452 29.1604 6.51 29.2024 6.51 29.2024C8.61 29.3495 9.723 31.3664 9.723 31.3664C11.55 34.5597 14.637 33.6143 15.834 33.1101C16.023 31.7445 16.569 30.8201 17.157 30.2949C12.495 29.7697 7.602 27.9629 7.602 19.9585C7.602 17.6265 8.4 15.7567 9.765 14.2651C9.555 13.7399 8.82 11.5549 9.975 8.71872C9.975 8.71872 11.739 8.15147 15.75 10.8616C17.409 10.3994 19.215 10.1683 21 10.1683C22.785 10.1683 24.591 10.3994 26.25 10.8616C30.261 8.15147 32.025 8.71872 32.025 8.71872C33.18 11.5549 32.445 13.7399 32.235 14.2651C33.6 15.7567 34.398 17.6265 34.398 19.9585C34.398 27.9839 29.484 29.7487 24.801 30.2739C25.557 30.9252 26.25 32.2067 26.25 34.1606V39.917C26.25 40.4842 26.586 41.1565 27.657 40.9675C35.994 38.1523 42 30.2949 42 21.009C42 18.25 41.4568 15.5181 40.4015 12.9692C39.3461 10.4202 37.7993 8.10424 35.8492 6.15338C33.8992 4.20252 31.5842 2.65501 29.0364 1.59921C26.4885 0.543413 23.7578 0 21 0Z" fill="url(#paint0_linear_26_117)"/>
<defs>
<linearGradient id="paint0_linear_26_117" x1="15.5" y1="10" x2="33" y2="36" gradientUnits="userSpaceOnUse">
<stop stop-color="#886586"/>
<stop offset="1" stop-color="#8492AE"/>
</linearGradient>
</defs>
</svg>
