<svg width="15" height="14" viewBox="0 0 15 14" fill="none" xmlns="http://www.w3.org/2000/svg">
<path d="M11.3944 14C11.2147 14 11.0391 13.961 10.8763 13.886L10.7928 13.8462L7.49885 12.0169L4.20485 13.847L4.11983 13.8884C3.92439 13.9759 3.70867 14.0117 3.49447 13.9921C3.28027 13.9725 3.07518 13.8982 2.89992 13.7767C2.71441 13.6443 2.57161 13.4631 2.48834 13.2544C2.40508 13.0457 2.38481 12.8181 2.42992 12.5986L3.19748 8.97446L1.91261 7.83694L0.392731 6.49018L0.330171 6.42616C0.181724 6.27357 0.0781013 6.08496 0.0301317 5.88005C-0.0178379 5.67515 -0.00839404 5.46146 0.0574763 5.26132C0.19623 4.85222 0.554744 4.5493 0.987848 4.47357L1.06966 4.45951L4.84007 4.05275L6.40085 0.68782L6.44897 0.601941C6.55307 0.419712 6.70527 0.267844 6.88983 0.162024C7.0744 0.0562036 7.28464 0.00026952 7.49885 0C7.93436 0 8.33618 0.232657 8.54872 0.60116L8.59684 0.688601L10.1592 4.0551L13.9296 4.46185L14.0131 4.47513C14.4454 4.5532 14.8039 4.85456 14.9418 5.26522C15.0782 5.67198 14.9699 6.12246 14.6691 6.43163L14.6066 6.49253L11.801 8.97836L12.5686 12.5947C12.6141 12.8157 12.5937 13.0448 12.5099 13.2549C12.426 13.465 12.2822 13.6474 12.0954 13.7806C11.8913 13.9238 11.646 14.0006 11.3944 14ZM4.85852 8.8753C4.82724 9.0174 4.48476 10.6288 4.18079 12.0622L7.10264 10.4407C7.2236 10.3736 7.36043 10.3383 7.49965 10.3383C7.63887 10.3383 7.77569 10.3736 7.89666 10.4407L10.8185 12.0607L10.1376 8.85657C10.1094 8.72365 10.1173 8.58588 10.1607 8.45689C10.204 8.32789 10.2812 8.21215 10.3846 8.12112L12.8709 5.91791L9.52802 5.558C9.38946 5.54291 9.25734 5.49292 9.14468 5.41296C9.03202 5.33301 8.94272 5.22585 8.88558 5.10205L7.49965 2.11889L6.11532 5.10205C5.99822 5.35345 5.7544 5.52599 5.47288 5.558L2.12996 5.91791L4.6163 8.12112C4.72229 8.21424 4.80067 8.33334 4.84328 8.46599C4.88588 8.59865 4.89114 8.74 4.85852 8.8753Z" fill="url(#paint0_linear_48_279)"/>
<defs>
<linearGradient id="paint0_linear_48_279" x1="3.08922" y1="2.31569" x2="12.0261" y2="13.0932" gradientUnits="userSpaceOnUse">
<stop stop-color="#B2C0E0"/>
<stop offset="1" stop-color="#937E95"/>
</linearGradient>
</defs>
</svg>
